<?xml version="1.0" encoding="UTF-8"?>
<svg width="526px" height="174px" viewBox="0 0 526 174" version="1.1" xmlns="http://www.w3.org/2000/svg" xmlns:xlink="http://www.w3.org/1999/xlink">
    <!-- Generator: Sketch 43.2 (39069) - http://www.bohemiancoding.com/sketch -->
    <title>Pattern</title>
    <desc>Created with Sketch.</desc>
    <defs></defs>
    <g id="Page-1" stroke="none" stroke-width="1" fill="none" fill-rule="evenodd" opacity="0.100000001">
        <g id="Homepage-Desktop-HD" transform="translate(-131.000000, -2610.000000)" fill="#00CCBB">
            <g id="Footer" transform="translate(0.000000, 2580.000000)">
                <g id="BG">
                    <g id="Pattern" transform="translate(131.000000, 30.000000)">
                        <path d="M450.089551,232.932308 C477.704786,216.856136 512.474317,227.186214 524.353223,245.233089 C536.23213,263.279964 498.620801,280.938167 477.161817,279.611995 C455.702833,278.285823 422.474317,249.008479 450.089551,232.932308 Z M390.224913,265.441921 C398.86552,263.561266 404.891272,267.415823 414.198354,272.038936 C423.505436,276.662049 417.782003,301.6406 406.825912,305.132964 C395.869822,308.625329 373.852615,304.360483 371.399715,291.718085 C368.946815,279.075687 381.584305,267.322576 390.224913,265.441921 Z M410.841505,41.7223599 C428.747755,31.5993131 426.519239,68.7536099 435.38838,84.0622037 C444.25752,99.3707974 464.167676,95.2829068 467.04463,113.427438 C469.921583,131.571969 450.001661,142.773141 435.38838,144.997751 C420.775098,147.22236 405.430716,134.777047 402.665723,113.427438 C399.90073,92.0778287 392.935255,51.8454068 410.841505,41.7223599 Z M386.089551,179.831801 C391.165723,162.905954 411.927442,167.759469 423.841505,169.251657 C435.755567,170.743844 450.480176,156.728285 461.591505,150.480238 C472.702833,144.232191 485.202833,140.935316 501.82002,150.480238 C518.437208,160.02516 517.286817,179.263376 504.011426,187.220407 C490.736036,195.177438 472.63838,176.193063 456.523145,184.417738 C440.407911,192.642413 442.771192,213.036879 420.458692,215.773207 C398.146192,218.509535 381.01338,196.757648 386.089551,179.831801 Z M289.425489,119.720407 C303.667676,128.536813 293.88252,161.681344 315.066114,174.540719 C336.249708,187.400094 360.456739,190.646188 368.171583,205.489938 C375.886426,220.333688 371.38252,263.337594 330.78877,259.884469 C290.19502,256.431344 263.304395,195.665719 262.073926,165.978219 C260.843458,136.290719 275.183301,110.904001 289.425489,119.720407 Z M361.51338,155.476266 C331.310255,174.382516 330.374708,110.386422 326.966505,97.2848599 C323.558301,84.1832974 286.972364,71.9098599 302.622755,60.6950162 C318.273145,49.4801724 357.900098,64.4547818 375.13252,86.4899381 C392.364942,108.525094 391.716505,136.570016 361.51338,155.476266 Z" id="Path-52" transform="translate(394.310663, 173.152601) scale(-1, -1) translate(-394.310663, -173.152601) "></path>
                        <path d="M188.089551,192.932308 C215.704786,176.856136 250.474317,187.186214 262.353223,205.233089 C274.23213,223.279964 236.620801,240.938167 215.161817,239.611995 C193.702833,238.285823 160.474317,209.008479 188.089551,192.932308 Z M128.224913,225.441921 C136.86552,223.561266 142.891272,227.415823 152.198354,232.038936 C161.505436,236.662049 155.782003,261.6406 144.825912,265.132964 C133.869822,268.625329 111.852615,264.360483 109.399715,251.718085 C106.946815,239.075687 119.584305,227.322576 128.224913,225.441921 Z M148.841505,1.72235993 C166.747755,-8.40068695 164.519239,28.7536099 173.38838,44.0622037 C182.25752,59.3707974 202.167676,55.2829068 205.04463,73.4274381 C207.921583,91.5719693 188.001661,102.773141 173.38838,104.997751 C158.775098,107.22236 143.430716,94.7770474 140.665723,73.4274381 C137.90073,52.0778287 130.935255,11.8454068 148.841505,1.72235993 Z M124.089551,139.831801 C129.165723,122.905954 149.927442,127.759469 161.841505,129.251657 C173.755567,130.743844 188.480176,116.728285 199.591505,110.480238 C210.702833,104.232191 223.202833,100.935316 239.82002,110.480238 C256.437208,120.02516 255.286817,139.263376 242.011426,147.220407 C228.736036,155.177438 210.63838,136.193063 194.523145,144.417738 C178.407911,152.642413 180.771192,173.036879 158.458692,175.773207 C136.146192,178.509535 119.01338,156.757648 124.089551,139.831801 Z M27.4254889,79.7204068 C41.6676764,88.5368131 31.8825202,121.681344 53.0661139,134.540719 C74.2497077,147.400094 98.4567389,150.646188 106.171583,165.489938 C113.886426,180.333688 109.38252,223.337594 68.7887702,219.884469 C28.1950202,216.431344 1.30439518,155.665719 0.073926432,125.978219 C-1.15654232,96.2907193 13.1833014,70.9040006 27.4254889,79.7204068 Z M99.5133796,115.476266 C69.3102546,134.382516 68.3747077,70.3864224 64.9665046,57.2848599 C61.5583014,44.1832974 24.9723639,31.9098599 40.6227546,20.6950162 C56.2731452,9.48017243 95.9000983,24.4547818 113.13252,46.4899381 C130.364942,68.5250943 129.716505,96.5700162 99.5133796,115.476266 Z" id="Path-52"></path>
                    </g>
                </g>
            </g>
        </g>
    </g>
</svg>