<?xml version="1.0" encoding="UTF-8"?>
<svg width="33px" height="28px" viewBox="0 0 33 28" version="1.1" xmlns="http://www.w3.org/2000/svg" xmlns:xlink="http://www.w3.org/1999/xlink">
    <!-- Generator: Sketch 43.2 (39069) - http://www.bohemiancoding.com/sketch -->
    <title>Logo</title>
    <desc>Created with Sketch.</desc>
    <defs>
        <path d="M15.645516,12.4441351 C15.181616,13.4071351 14.775616,14.5571351 14.422016,15.8971351 C14.006616,17.4721351 13.775816,18.7991351 13.802016,20.1181351 C13.844516,22.2501351 14.626916,23.9131351 16.421316,24.6581351 C18.947916,25.7081351 20.693916,24.8201351 23.203216,22.3451351 C23.639416,21.9121351 23.840816,21.7131351 24.039816,21.5241351 C24.640616,20.9541351 24.665416,20.0051351 24.095116,19.4041351 C23.524816,18.8031351 22.575316,18.7781351 21.974516,19.3491351 C21.751016,19.5611351 21.525516,19.7831351 21.096516,20.2091351 C19.386016,21.8961351 18.579516,22.3061351 17.572416,21.8881351 C16.609316,21.4881351 16.570016,19.5151351 17.322816,16.6621351 C17.630616,15.4961351 17.974216,14.5221351 18.348216,13.7461351 C18.707816,13.0001351 18.394216,12.1031351 17.647816,11.7441351 C16.901516,11.3841351 16.005016,11.6981351 15.645516,12.4441351 Z" id="path-1"></path>
    </defs>
    <g id="Page-1" stroke="none" stroke-width="1" fill="none" fill-rule="evenodd">
        <g id="Homepage-Desktop-HD" transform="translate(-160.000000, -120.000000)">
            <g id="Logo" transform="translate(160.000000, 120.000000)">
                <path d="M18.3646977,7.93913506 C19.1931977,7.93913506 19.8646977,7.26713506 19.8646977,6.43913506 C19.8646977,5.61113506 19.1931977,4.93913506 18.3646977,4.93913506 C16.2224977,4.93913506 15.1431977,3.88313506 14.8042977,1.30513506 C14.5826977,-0.381864938 12.1687977,-0.455864938 11.8445977,1.21413506 C10.2836977,9.25313506 8.89214772,15.2731351 7.67640772,19.2561351 C7.08461772,21.1951351 6.53993772,22.6311351 6.05916772,23.5421351 C5.91776772,23.8111351 5.78824772,24.0211351 5.67835772,24.1701351 C4.85420772,23.5541351 3.96247772,19.7571351 3.36953772,13.4881351 C3.03266772,9.92613506 2.92606772,6.30013506 3.04991772,2.60813506 C3.07769772,1.78013506 2.42901772,1.08613506 1.60105772,1.05813506 C0.773097716,1.03013506 0.0793777156,1.67913506 0.0516077156,2.50713506 C-0.0764922844,6.32613506 0.0338677156,10.0801351 0.382867716,13.7701351 C0.737517716,17.5201351 1.07957772,19.9991351 1.62476772,22.1091351 C2.46258772,25.3501351 3.70732772,27.2581351 5.91282772,27.2581351 C8.73179772,27.2581351 10.8941977,20.9931351 13.8901977,6.31113506 C14.9935977,7.37713506 16.4985977,7.93913506 18.3646977,7.93913506 Z" id="Clip-10" fill="#007CFF"></path>
                <path d="M27.4168665,13.2651351 C27.2004665,14.0651351 27.6731665,14.8891351 28.4727665,15.1051351 C30.2780665,15.5941351 31.2732665,13.9611351 30.9202665,12.4311351 C30.6386665,11.2111351 29.6254665,10.2131351 28.2007665,9.91013506 C25.6099665,9.35913506 23.1137665,11.2451351 22.1099665,14.0831351 C20.8648665,17.6031351 21.1277665,21.6301351 23.9415665,23.0741351 C26.7317665,24.5061351 29.8324665,23.0061351 32.1313665,20.1131351 C32.6466665,19.4641351 32.5386665,18.5201351 31.8900665,18.0051351 C31.2414665,17.4901351 30.2978665,17.5981351 29.7825665,18.2461351 C28.2658665,20.1551351 26.4944665,21.0121351 25.3111665,20.4051351 C24.3048665,19.8881351 24.1386665,17.3441351 24.9381665,15.0831351 C25.4870665,13.5321351 26.6559665,12.6481351 27.5762665,12.8441351 C27.5202665,12.9751351 27.4577665,13.1141351 27.4168665,13.2651351 Z" id="Clip-13" fill="#007CFF"></path>
                <mask id="mask-2" fill="white">
                    <use xlink:href="#path-1"></use>
                </mask>
                <use id="Clip-16" fill="#007CFF" xlink:href="#path-1"></use>
            </g>
        </g>
    </g>
</svg>